<?xml version="1.0" standalone="no"?>
<!DOCTYPE svg PUBLIC "-//W3C//DTD SVG 20010904//EN"
 "http://www.w3.org/TR/2001/REC-SVG-20010904/DTD/svg10.dtd">
<svg version="1.0" xmlns="http://www.w3.org/2000/svg"
 width="896.000000pt" height="896.000000pt" viewBox="0 0 896.000000 896.000000"
 preserveAspectRatio="xMidYMid meet">
<metadata>
Created by potrace 1.11, written by Peter Selinger 2001-2013
</metadata>
<g transform="translate(0.000000,896.000000) scale(0.100000,-0.100000)"
fill="#000000" stroke="none">
<path d="M0 4475 l0 -4275 4480 0 4480 0 0 4275 0 4275 -4480 0 -4480 0 0
-4275z m8671 3955 c3 -12 5 -7896 2 -7905 -5 -15 -8342 -12 -8351 2 -5 8 -8
7847 -3 7898 1 10 8350 15 8352 5z"/>
<path d="M5165 7465 c-33 -11 -63 -24 -66 -29 -4 -4 -1 -27 7 -51 37 -125 41
-331 9 -490 -8 -36 -13 -60 -15 -62 -2 -2 -3 -6 -4 -10 -12 -46 -29 -99 -36
-112 -5 -9 -19 -38 -31 -66 -30 -68 -85 -160 -131 -220 -21 -27 -44 -57 -51
-66 -6 -9 -31 -37 -54 -63 -45 -51 -45 -51 -59 29 -8 50 -39 137 -66 190 -63
121 -112 183 -248 309 -42 39 -148 116 -159 116 -6 0 -11 3 -11 8 0 14 -176
107 -285 150 -125 49 -180 49 -168 2 3 -10 -2 -40 -10 -67 -24 -72 -25 -126
-4 -121 34 6 258 -93 367 -163 92 -59 178 -137 230 -207 14 -19 31 -40 38 -47
6 -8 12 -18 12 -24 0 -6 4 -11 8 -11 5 0 17 -19 27 -42 49 -116 56 -134 60
-153 3 -11 9 -40 14 -65 6 -25 12 -67 14 -95 5 -51 -3 -65 -95 -175 -7 -8 -24
-30 -37 -50 -13 -19 -26 -37 -30 -40 -3 -3 -12 -16 -20 -30 -8 -14 -36 -60
-62 -102 -27 -43 -46 -78 -42 -78 3 0 -1 -10 -9 -22 -22 -34 -77 -182 -84
-224 -3 -21 -10 -49 -16 -63 -5 -14 -9 -27 -9 -28 1 -2 1 -21 1 -43 0 -33 -3
-40 -19 -40 -11 0 -23 5 -26 10 -3 6 -13 10 -21 10 -18 0 -157 63 -194 88 -14
9 -27 17 -30 17 -5 0 -52 31 -75 47 -91 67 -154 116 -171 133 -12 11 -39 36
-60 57 -61 57 -115 117 -171 193 -29 39 -56 75 -60 80 -129 169 -317 583 -314
689 1 23 -1 27 -16 21 -10 -5 -38 -15 -63 -24 -25 -9 -50 -19 -55 -23 -6 -3
-25 -5 -43 -4 -36 2 -52 -14 -46 -49 2 -11 5 -29 6 -40 2 -11 7 -26 11 -32 5
-7 6 -13 3 -13 -5 0 41 -131 81 -230 58 -141 209 -412 266 -476 27 -30 37 -43
37 -49 0 -4 6 -12 13 -19 6 -8 32 -38 57 -67 112 -134 282 -280 435 -372 89
-54 219 -117 280 -137 22 -7 44 -16 50 -21 5 -5 19 -9 32 -9 13 0 23 -3 24 -7
0 -5 2 -127 3 -273 l3 -265 43 -180 c23 -99 44 -183 47 -187 2 -5 -5 -8 -16
-8 -12 0 -21 4 -21 9 0 5 -8 8 -17 7 -10 -2 -39 3 -65 10 -27 7 -48 10 -48 8
0 -2 -11 1 -26 6 -14 6 -37 12 -52 15 -15 2 -45 8 -67 12 -105 19 -357 -4
-400 -38 -12 -9 -229 96 -320 155 -367 237 -644 608 -800 1071 -15 44 -28 85
-30 90 -1 6 -5 17 -8 25 -5 14 -24 93 -32 130 -2 8 -8 33 -13 55 -11 40 -17
67 -28 135 -4 19 -8 42 -9 50 -2 8 -6 40 -10 70 -4 30 -9 66 -11 80 -11 66
-19 222 -19 388 0 114 -4 182 -10 183 -16 1 -148 1 -166 0 -14 -1 -16 -24 -13
-203 1 -112 5 -230 8 -263 4 -33 8 -78 10 -100 2 -22 7 -56 10 -75 3 -19 8
-52 11 -74 3 -21 7 -41 9 -45 2 -3 6 -28 10 -56 13 -112 128 -522 150 -537 6
-4 8 -8 4 -8 -7 0 46 -130 78 -191 10 -19 19 -38 20 -44 1 -5 24 -47 52 -92
28 -46 48 -83 44 -83 -4 0 -2 -4 3 -8 28 -19 73 -104 48 -89 -5 3 -40 8 -79
11 -39 4 -82 9 -95 12 -13 2 -39 7 -58 10 -74 12 -231 67 -321 112 -52 25 -97
49 -100 52 -3 3 -27 21 -55 40 -133 92 -242 214 -307 340 -19 36 -37 70 -41
77 -5 8 -17 2 -40 -20 -17 -18 -57 -41 -87 -52 -30 -10 -65 -24 -78 -30 l-22
-12 31 -59 c17 -32 38 -66 45 -75 8 -8 14 -19 14 -23 0 -4 6 -13 13 -20 6 -8
19 -24 27 -36 64 -94 214 -238 339 -325 63 -43 210 -121 291 -152 76 -30 229
-73 282 -79 23 -3 57 -8 73 -13 17 -4 102 -8 189 -10 l160 -3 56 -56 c50 -50
137 -127 194 -172 11 -8 35 -29 55 -46 49 -43 138 -98 183 -114 33 -12 41 -23
20 -26 -8 -1 -58 -22 -84 -35 -160 -81 -223 -110 -283 -129 -22 -7 -46 -18
-54 -24 -8 -6 -15 -9 -15 -7 -1 2 -19 0 -41 -4 -51 -11 -44 -9 -90 -24 -55
-17 -59 -19 -65 -18 -3 0 -14 -5 -26 -11 -11 -6 -32 -13 -45 -15 -13 -3 -42
-10 -64 -16 -72 -19 -148 -25 -295 -24 -152 1 -225 11 -325 45 -100 35 -326
149 -333 169 -2 5 -10 9 -18 9 -8 0 -14 5 -14 11 0 5 -4 8 -9 5 -5 -4 -11 -3
-13 2 -1 4 -40 36 -86 70 -92 70 -85 71 -142 -13 -19 -27 -41 -55 -49 -61 -12
-10 -12 -14 5 -36 10 -14 30 -33 44 -42 14 -9 52 -36 85 -61 33 -24 66 -44 73
-45 6 0 12 -3 12 -7 0 -13 203 -122 301 -161 75 -31 246 -78 314 -87 17 -3 50
-8 75 -13 52 -9 318 -8 370 2 19 3 60 11 90 17 30 7 60 12 65 13 6 1 16 5 23
9 6 5 12 6 12 3 0 -5 121 37 279 98 120 47 138 55 306 137 261 127 402 164
630 162 101 -1 230 -10 256 -18 9 -3 30 -7 45 -9 38 -5 86 -17 99 -25 6 -3 15
-6 20 -8 27 -6 84 -30 107 -45 35 -23 38 -52 12 -113 -22 -53 -73 -196 -80
-227 -2 -10 -7 -28 -10 -40 -3 -13 -7 -30 -9 -38 -2 -8 -4 -16 -5 -17 -3 -4
-5 -13 -14 -66 -4 -27 -10 -59 -12 -70 -3 -12 -7 -40 -9 -62 -2 -22 -7 -67
-11 -100 -11 -98 -13 -140 -13 -355 -1 -201 1 -235 14 -314 12 -71 18 -95 45
-175 33 -99 77 -205 99 -242 12 -19 21 -40 21 -47 0 -22 -102 -184 -150 -238
-54 -60 -90 -106 -90 -114 0 -3 27 -31 60 -64 l60 -59 56 48 c31 27 58 55 62
64 3 9 14 28 24 44 11 15 17 27 13 27 -3 0 7 13 23 28 15 15 31 35 35 45 12
31 19 24 82 -83 6 -9 24 -30 40 -47 35 -36 75 -85 75 -93 0 -16 59 -38 94 -35
29 3 49 15 84 50 l46 45 -60 58 c-33 31 -69 75 -80 97 -10 22 -27 48 -36 58
-9 11 -30 46 -47 79 -34 68 -36 54 34 203 25 55 50 109 55 120 6 11 12 34 15
50 2 17 9 45 14 63 5 18 10 35 10 37 1 3 1 6 2 8 7 23 21 104 25 142 2 22 6
65 9 95 7 67 7 279 1 340 -14 117 -18 149 -27 202 -5 32 -12 70 -15 85 -3 16
-7 46 -10 68 -3 22 -14 72 -25 112 -11 40 -22 80 -24 90 -6 28 -40 121 -69
190 -32 78 -32 85 2 101 46 22 120 51 144 56 13 3 34 7 48 11 92 20 375 33
455 20 17 -2 46 -7 65 -10 19 -2 49 -8 65 -12 17 -4 35 -7 40 -8 19 -2 100
-26 140 -41 22 -9 42 -16 45 -16 13 -1 45 -15 165 -73 148 -72 242 -115 253
-115 6 0 191 -71 237 -91 32 -14 207 -57 261 -64 137 -19 349 -18 434 0 14 4
34 7 45 9 41 6 92 18 160 38 39 11 75 21 80 23 83 19 369 165 425 217 10 10
24 18 29 18 6 0 14 6 18 13 4 6 26 25 48 42 80 60 79 58 37 116 -20 29 -48 65
-62 81 l-25 28 -32 -30 c-18 -16 -35 -30 -38 -30 -4 0 -14 -8 -23 -17 -36 -35
-202 -137 -307 -188 l-110 -53 -250 3 c-137 1 -268 6 -290 10 -22 4 -49 9 -60
11 -11 1 -20 3 -20 4 0 1 -10 3 -23 6 -24 4 -181 62 -247 90 -22 10 -44 19
-50 20 -68 20 -214 78 -209 83 3 3 9 6 12 6 4 0 12 3 17 6 6 4 28 12 50 19 61
19 132 57 220 116 162 108 235 200 300 374 15 41 32 79 36 84 16 18 10 24 -23
24 -18 0 -62 11 -98 25 -36 13 -72 27 -80 30 -11 4 -28 -20 -64 -93 -26 -55
-59 -111 -72 -125 -13 -14 -24 -28 -24 -32 0 -9 -94 -94 -138 -124 -57 -39
-117 -69 -137 -69 -8 0 -15 -4 -15 -8 0 -6 -62 -27 -98 -33 -4 -1 -17 -5 -30
-10 -76 -29 -266 -43 -327 -24 -53 17 -98 25 -225 41 -118 14 -353 11 -437 -7
-46 -9 -83 -14 -83 -12 0 7 104 103 112 103 4 0 13 6 20 13 7 7 36 26 63 42
28 16 66 41 85 55 45 34 151 99 215 133 52 27 223 107 229 107 2 0 21 8 42 17
22 9 41 17 44 18 3 0 10 3 15 6 6 4 24 10 40 14 37 10 34 9 70 24 17 7 73 27
125 46 52 18 133 49 180 69 46 20 90 36 97 36 7 0 13 4 13 8 0 6 42 27 60 29
3 0 61 33 130 73 69 41 150 87 180 103 30 17 57 34 58 39 2 4 8 8 13 8 6 0 15
5 22 10 7 6 38 30 69 53 74 56 134 112 179 168 21 24 59 67 85 96 55 59 58 63
99 118 17 22 32 42 35 45 12 12 117 199 141 250 29 65 70 198 72 237 2 37 1
38 -33 39 -20 1 -53 9 -74 18 -21 9 -56 16 -77 16 -36 0 -39 -2 -35 -23 3 -20
-35 -158 -60 -215 -4 -9 -8 -23 -10 -31 -6 -32 -177 -310 -225 -366 -44 -51
-104 -110 -154 -150 -28 -22 -52 -42 -55 -46 -3 -3 -27 -21 -55 -40 -27 -18
-58 -42 -69 -51 -34 -31 -293 -178 -312 -178 -2 0 16 39 40 88 92 183 153 369
171 519 2 24 7 48 9 51 17 29 28 503 13 572 -3 14 -8 50 -11 80 -13 129 -54
319 -106 485 -21 69 -74 214 -87 241 -5 11 -9 45 -8 77 0 31 -2 57 -5 57 -15
0 -157 -63 -171 -76 -20 -18 -18 -66 6 -119 34 -78 105 -278 121 -344 2 -9 8
-34 14 -56 18 -67 20 -76 39 -190 32 -179 37 -264 31 -497 0 -10 0 -24 1 -30
1 -7 -2 -31 -5 -53 -4 -22 -9 -56 -11 -75 -2 -19 -6 -44 -9 -55 -21 -93 -30
-128 -47 -180 -11 -33 -22 -68 -24 -77 -5 -25 -85 -196 -117 -251 -15 -26 -28
-50 -28 -53 0 -3 -5 -10 -10 -17 -6 -7 -31 -43 -57 -82 -61 -92 -113 -156
-122 -151 -4 3 -18 -1 -32 -7 -13 -7 -49 -23 -79 -35 -30 -12 -68 -27 -85 -33
-16 -7 -32 -13 -35 -13 -3 -1 -26 -10 -50 -20 -186 -79 -371 -172 -479 -240
-22 -15 -43 -26 -46 -26 -2 0 -13 -6 -22 -14 -10 -8 -54 -41 -98 -74 -90 -68
-174 -142 -248 -219 -59 -62 -157 -193 -157 -210 0 -7 -7 -13 -15 -13 -8 0
-15 9 -15 19 0 11 -4 22 -9 25 -4 3 -18 34 -31 68 -12 35 -26 72 -30 83 -12
26 -33 131 -36 175 -4 51 -13 148 -20 205 -12 103 -6 346 11 435 6 29 16 97
20 127 2 11 6 30 9 41 4 11 8 33 10 49 12 91 96 319 135 367 7 8 13 21 15 28
2 14 43 85 61 105 5 6 21 26 35 44 38 50 118 136 189 203 151 143 281 282 281
301 0 4 11 20 25 37 102 121 205 376 239 591 14 83 14 307 1 387 -25 155 -52
239 -78 241 -6 0 -21 2 -32 3 -11 1 -47 -8 -80 -19z m-649 -4041 c10 -20 17
-42 17 -50 0 -8 4 -14 9 -14 5 0 7 -4 4 -8 -3 -5 1 -33 9 -63 8 -30 17 -74 20
-99 4 -24 9 -48 11 -51 4 -7 13 -192 18 -359 2 -101 -24 -280 -70 -465 -15
-60 -16 -66 -32 -119 l-8 -30 -12 30 c-6 16 -14 47 -16 69 -3 22 -17 78 -30
124 -14 46 -28 111 -32 145 -3 33 -8 75 -10 91 -14 116 -19 301 -9 373 11 84
16 118 20 132 2 8 6 33 9 55 5 32 17 91 31 155 7 32 44 120 51 120 2 0 11 -16
20 -36z"/>
<path d="M4563 7397 c-26 -61 -63 -177 -70 -221 -8 -57 -5 -190 7 -236 6 -25
12 -49 13 -55 11 -47 77 -153 131 -212 60 -65 149 -133 172 -133 15 0 70 117
89 190 32 119 24 288 -17 387 -6 15 -12 30 -13 33 -8 32 -113 173 -155 208
-21 17 -128 92 -132 92 -2 0 -13 -24 -25 -53z"/>
<path d="M5776 7078 c-22 -11 -45 -26 -52 -32 -6 -6 -25 -20 -40 -31 -76 -53
-181 -176 -209 -245 -4 -8 -10 -22 -15 -31 -8 -15 -27 -79 -36 -124 -18 -80 0
-254 34 -338 7 -16 12 -35 12 -43 0 -8 2 -14 5 -14 25 0 180 113 233 170 143
154 206 364 165 550 -16 75 -21 94 -23 98 -3 2 -4 7 -15 40 -9 27 -10 27 -59
0z"/>
<path d="M3099 6956 l-56 -11 12 -40 c18 -62 63 -148 110 -210 54 -73 135
-142 216 -184 43 -22 79 -39 79 -36 0 2 11 0 25 -5 71 -27 233 -30 344 -6 13
3 26 8 29 11 10 10 -42 123 -101 220 -33 54 -185 194 -217 201 -3 0 -27 11
-55 24 -27 13 -50 23 -50 22 0 0 -25 5 -57 13 -67 15 -201 16 -279 1z"/>
<path d="M2518 6587 c-45 -46 -100 -114 -98 -123 1 -4 -2 -10 -7 -13 -11 -8
-54 -98 -59 -125 -2 -12 -7 -34 -10 -50 -11 -52 -7 -139 11 -206 16 -64 71
-177 103 -213 16 -18 19 -16 64 35 27 29 48 56 48 60 0 4 6 13 13 20 20 19 63
115 82 182 17 58 22 162 11 224 -16 84 -92 242 -117 242 -5 0 -23 -15 -41 -33z"/>
<path d="M6768 6469 c-111 -113 -173 -225 -202 -362 -9 -46 -10 -69 -3 -76 8
-8 8 -11 0 -11 -5 0 -9 -10 -8 -22 12 -95 17 -121 36 -178 27 -84 105 -230
123 -230 8 0 60 53 103 104 29 34 85 130 108 183 78 182 68 375 -28 558 -18
33 -40 69 -49 79 -17 19 -19 17 -80 -45z"/>
<path d="M3575 6267 c-3 -6 -6 -21 -8 -32 -1 -11 -5 -24 -8 -30 -7 -14 -4
-232 5 -280 9 -51 44 -142 68 -177 10 -14 18 -30 18 -35 0 -16 149 -163 165
-163 2 0 27 -14 55 -30 28 -17 59 -32 68 -34 9 -1 30 -8 45 -14 33 -14 48 -15
45 -4 -1 4 2 27 7 52 26 139 3 317 -58 440 -59 118 -191 232 -350 299 -35 15
-49 17 -52 8z"/>
<path d="M5272 6019 c-136 -17 -244 -71 -347 -174 -49 -49 -105 -119 -105
-133 0 -12 126 -68 198 -88 46 -12 132 -23 197 -25 13 -1 96 10 115 14 117 27
247 105 320 192 14 16 32 37 40 45 44 46 44 47 3 72 -69 43 -186 83 -268 93
-27 3 -59 7 -70 9 -11 2 -49 -1 -83 -5z"/>
<path d="M1602 5798 c-54 -177 -46 -357 21 -508 15 -34 69 -114 79 -118 4 -2
8 -10 8 -17 0 -7 4 -15 9 -17 5 -1 29 -21 53 -43 24 -22 61 -52 83 -67 45 -30
138 -78 143 -74 1 2 5 14 7 27 22 112 27 156 27 235 1 250 -129 460 -365 593
-49 28 -54 27 -65 -11z"/>
<path d="M2598 5668 c-8 -22 54 -239 76 -268 6 -8 20 -32 30 -52 39 -77 160
-183 251 -220 102 -42 128 -47 263 -51 l103 -3 -7 40 c-10 63 -82 246 -96 246
-5 0 -8 5 -8 11 0 15 -56 86 -104 133 -62 58 -182 131 -234 141 -9 1 -37 8
-62 15 -61 17 -208 22 -212 8z"/>
<path d="M5790 5516 c-3 -2 -23 -6 -45 -9 -205 -30 -408 -168 -485 -332 -48
-101 -57 -142 -65 -278 -4 -76 -4 -77 18 -72 12 2 36 7 52 9 17 3 55 12 85 21
30 9 60 17 65 18 21 5 112 52 150 78 118 80 216 220 241 344 12 60 17 106 18
160 1 47 -2 60 -14 63 -9 1 -18 1 -20 -2z"/>
<path d="M4790 5298 c-70 -48 -194 -180 -228 -243 -48 -88 -83 -206 -84 -280
-1 -128 58 -355 91 -355 43 0 189 124 258 220 42 59 90 164 100 220 12 74 7
224 -11 285 -20 68 -68 185 -76 184 -3 0 -25 -14 -50 -31z"/>
<path d="M7414 5291 c-2 -3 -12 -6 -22 -7 -9 -2 -24 -4 -32 -7 -8 -2 -31 -7
-50 -11 -32 -8 -135 -54 -203 -92 -27 -15 -136 -119 -167 -159 -14 -18 -73
-133 -92 -180 -14 -35 -34 -149 -34 -190 1 -38 3 -40 31 -40 35 0 151 26 215
49 143 53 265 157 328 283 52 103 71 171 79 289 l5 70 -26 0 c-15 0 -29 -2
-32 -5z"/>
<path d="M3235 4771 c-88 -24 -155 -50 -177 -69 -17 -14 -16 -18 18 -61 48
-60 157 -164 192 -182 15 -8 29 -16 32 -19 3 -3 28 -15 55 -28 141 -63 306
-63 463 -1 118 47 134 57 123 77 -19 35 -138 150 -196 190 -153 104 -340 138
-510 93z"/>
<path d="M6037 4604 c-1 -1 -20 -4 -42 -8 -77 -11 -94 -16 -162 -51 -67 -34
-101 -61 -158 -126 -35 -40 -95 -138 -95 -155 0 -7 15 -17 33 -24 35 -13 274
-23 291 -12 6 4 22 8 36 10 14 2 54 17 90 34 69 33 193 146 222 203 8 17 23
43 31 60 9 16 13 33 9 37 -14 14 -243 43 -255 32z"/>
<path d="M1567 4503 c-2 -1 -19 -5 -38 -7 -43 -6 -59 -11 -136 -48 -35 -16
-63 -34 -63 -39 0 -5 -5 -9 -11 -9 -28 0 -190 -202 -171 -214 9 -5 89 -27 120
-32 12 -2 34 -6 50 -9 41 -8 132 -7 177 0 51 9 70 13 70 15 0 1 8 3 17 5 9 2
43 16 75 31 66 32 185 146 220 211 l23 41 -63 20 c-34 11 -78 23 -97 28 -35 7
-168 13 -173 7z"/>
<path d="M7167 4294 c-1 -2 -33 -5 -69 -8 -37 -2 -71 -7 -76 -10 -5 -3 -19 -7
-33 -9 -69 -13 -205 -94 -277 -165 -68 -66 -162 -217 -145 -232 4 -4 29 -12
55 -19 258 -62 479 -12 644 147 46 45 103 121 129 172 10 19 23 38 29 42 6 4
7 8 3 8 -4 0 -3 8 2 19 9 17 4 20 -52 31 -94 19 -203 31 -210 24z"/>
<path d="M2228 4264 c-2 -1 -22 -5 -45 -9 -55 -8 -171 -55 -218 -87 -32 -23
-132 -107 -144 -122 -18 -22 -5 -32 114 -90 149 -73 302 -98 423 -71 28 7 52
11 52 8 0 -2 18 6 40 17 22 11 40 18 40 15 0 -8 101 55 146 91 61 49 115 105
109 114 -13 21 -190 103 -249 116 -77 17 -140 24 -198 23 -37 -1 -69 -3 -70
-5z"/>
<path d="M5065 3743 c-90 -17 -245 -78 -245 -96 0 -29 139 -180 216 -233 125
-88 286 -124 449 -101 52 7 158 43 214 71 l32 17 -22 37 c-21 35 -137 156
-186 194 -39 31 -145 80 -209 98 -56 15 -198 23 -249 13z"/>
<path d="M3387 3724 c-1 -1 -22 -5 -47 -8 -103 -14 -181 -56 -271 -145 -36
-36 -71 -76 -78 -88 -10 -21 -8 -24 31 -44 86 -44 195 -68 291 -64 72 3 80 4
127 19 100 31 208 109 269 194 22 32 23 34 5 47 -22 16 -137 63 -174 71 -31 7
-150 21 -153 18z"/>
</g>
</svg>
