<?xml version="1.0" encoding="utf-8"?>
<!-- Generator: Adobe Illustrator 22.1.0, SVG Export Plug-In . SVG Version: 6.00 Build 0)  -->
<svg version="1.1" id="_x31_" xmlns="http://www.w3.org/2000/svg" xmlns:xlink="http://www.w3.org/1999/xlink" x="0px" y="0px"
	 width="28.3px" height="10.5px" viewBox="0 0 28.3 10.5" style="enable-background:new 0 0 28.3 10.5;" xml:space="preserve">
<style type="text/css">
	.st0{fill-rule:evenodd;clip-rule:evenodd;fill:#C3A667;}
</style>
<path class="st0" d="M5,0v1H2.5c-1,0-1.5,0.3-1.5,1v1.2C1.5,3,1.9,2.9,2.5,2.9H4v1H2.5c-0.9,0-1.4,0.3-1.5,0.9v2h-1V1.9
	C0.1,0.6,0.9,0,2.5,0H5L5,0z M1.4,9v0.3c0,0.4-0.2,0.6-0.7,0.6v0c-0.3,0-0.4,0.1-0.4,0.3v0.3H0V9c0-0.4,0.2-0.6,0.7-0.6
	C1.2,8.4,1.4,8.6,1.4,9L1.4,9z M28.2,9.6v0.3h-0.6c-0.5,0-0.7-0.2-0.7-0.6V9c0-0.4,0.2-0.6,0.7-0.6c0.5,0,0.7,0.2,0.7,0.6v0.3h-1.1
	c0,0.2,0.1,0.3,0.4,0.3H28.2L28.2,9.6z M28.1,9c0-0.2-0.1-0.3-0.4-0.3c-0.3,0-0.4,0.1-0.4,0.3H28.1L28.1,9z M26,9
	c0-0.4,0.2-0.6,0.7-0.6v0.3c-0.3,0-0.4,0.1-0.4,0.3v0.9H26V9L26,9z M24.3,9.3V8.4h0.3v0.9c0,0.2,0.1,0.3,0.4,0.3
	c0.3,0,0.4-0.1,0.4-0.3V8.4h0.3v1.5h-0.3V9.8c-0.1,0.1-0.2,0.1-0.4,0.1C24.5,9.9,24.3,9.7,24.3,9.3L24.3,9.3z M24,9.6v0.3h-0.1
	c-0.5,0-0.7-0.2-0.7-0.6V7.8h0.3v0.3c0,0.2,0.1,0.3,0.4,0.3v0.3c-0.2,0-0.3,0-0.4-0.1v0.7c0,0.2,0.1,0.3,0.4,0.3H24L24,9.6z
	 M22.8,8.4v1.5h-0.3V8.4H22.8L22.8,8.4z M22.7,8.1c-0.1,0-0.1,0-0.1-0.1c0,0-0.1-0.1-0.1-0.2c0-0.1,0-0.1,0.1-0.2
	c0,0,0.1-0.1,0.1-0.1c0.1,0,0.1,0,0.1,0.1c0,0,0.1,0.1,0.1,0.2c0,0.1,0,0.1-0.1,0.2C22.8,8.1,22.7,8.1,22.7,8.1L22.7,8.1z M21.1,8.4
	L21.1,8.4c0.1,0,0.2,0,0.4,0c0.5,0,0.7,0.2,0.7,0.6v0.9h-0.3V9c0-0.2-0.1-0.3-0.4-0.3c-0.3,0-0.4,0.1-0.4,0.3v0.9h-0.3V8.4H21.1
	L21.1,8.4z M19.8,9c0-0.4,0.2-0.6,0.7-0.6v0.3c-0.3,0-0.4,0.1-0.4,0.3v0.9h-0.3V9L19.8,9z M18.2,9.3V8.4h0.3v0.9
	c0,0.2,0.1,0.3,0.4,0.3c0.3,0,0.4-0.1,0.4-0.3V8.4h0.3v1.5h-0.3V9.8c-0.1,0.1-0.2,0.1-0.4,0.1C18.4,9.9,18.2,9.7,18.2,9.3L18.2,9.3z
	 M17.9,7.8v0.3h-0.1c-0.3,0-0.4,0.1-0.4,0.3l0,0.1c0.1-0.1,0.2-0.1,0.4-0.1v0.3c-0.3,0-0.4,0.1-0.4,0.3v0.9H17V8.4
	c0-0.4,0.2-0.6,0.7-0.6H17.9L17.9,7.8z M15.6,7.8v0.3h-0.1c-0.3,0-0.4,0.1-0.4,0.3l0,0.1c0.1-0.1,0.2-0.1,0.4-0.1v0.3
	c-0.3,0-0.4,0.1-0.4,0.3v0.9h-0.3V8.4c0-0.4,0.2-0.6,0.7-0.6H15.6L15.6,7.8z M13.1,9.3V9c0-0.4,0.2-0.6,0.7-0.6
	c0.5,0,0.7,0.2,0.7,0.6v0.3c0,0.4-0.2,0.6-0.7,0.6C13.4,9.9,13.1,9.7,13.1,9.3L13.1,9.3z M14.2,9c0-0.2-0.1-0.3-0.4-0.3
	c-0.3,0-0.4,0.1-0.4,0.3v0.3c0,0.2,0.1,0.3,0.4,0.3c0.3,0,0.4-0.1,0.4-0.3V9L14.2,9z M11,9c0-0.4,0.2-0.6,0.7-0.6v0.3
	c-0.3,0-0.4,0.1-0.4,0.3v0.9H11V9L11,9z M10.6,9.6v0.3h-0.6c-0.5,0-0.7-0.2-0.7-0.6V9c0-0.4,0.2-0.6,0.7-0.6c0.5,0,0.7,0.2,0.7,0.6
	v0.3H9.6c0,0.2,0.1,0.3,0.4,0.3H10.6L10.6,9.6z M10.5,9c0-0.2-0.1-0.3-0.4-0.3C9.8,8.7,9.6,8.8,9.6,9H10.5L10.5,9z M9.1,9.3
	c0,0.4-0.2,0.6-0.7,0.6c-0.5,0-0.7-0.2-0.7-0.6V9c0-0.4,0.2-0.6,0.7-0.6c0.5,0,0.7,0.2,0.7,0.6H8.8c0-0.2-0.1-0.3-0.4-0.3
	C8.1,8.7,8,8.8,8,9v0.3c0,0.2,0.1,0.3,0.4,0.3c0.3,0,0.4-0.1,0.4-0.3H9.1L9.1,9.3z M6,9.3V8.4h0.3v0.9c0,0.2,0.1,0.3,0.4,0.3
	c0.3,0,0.4-0.1,0.4-0.3V8.4h0.3v1.5H7.1V9.8C7,9.9,6.9,9.9,6.7,9.9C6.2,9.9,6,9.7,6,9.3L6,9.3z M4.3,9.3V9c0-0.4,0.2-0.6,0.7-0.6v0
	c0.3,0,0.4-0.1,0.4-0.3V7.8h0.3v1.5c0,0.4-0.2,0.6-0.7,0.6C4.6,9.9,4.3,9.7,4.3,9.3L4.3,9.3z M5.4,9.3l0-0.7C5.3,8.7,5.2,8.7,5,8.7
	v0C4.7,8.7,4.6,8.8,4.6,9v0.3c0,0.2,0.1,0.3,0.4,0.3C5.3,9.6,5.4,9.5,5.4,9.3L5.4,9.3z M2.7,9.3V9c0-0.4,0.2-0.6,0.7-0.6
	c0.5,0,0.7,0.2,0.7,0.6v0.3c0,0.4-0.2,0.6-0.7,0.6C2.9,9.9,2.7,9.7,2.7,9.3L2.7,9.3z M3.8,9c0-0.2-0.1-0.3-0.4-0.3
	C3.1,8.7,2.9,8.8,2.9,9v0.3c0,0.2,0.1,0.3,0.4,0.3c0.3,0,0.4-0.1,0.4-0.3V9L3.8,9z M1.7,9c0-0.4,0.2-0.6,0.7-0.6v0.3
	C2.1,8.7,2,8.8,2,9v0.9H1.7V9L1.7,9z M0.3,9l0,0.7c0.1-0.1,0.2-0.1,0.4-0.1v0c0.3,0,0.4-0.1,0.4-0.3V9c0-0.2-0.1-0.3-0.4-0.3
	C0.4,8.7,0.3,8.8,0.3,9L0.3,9z M25.8,6.8L25.8,6.8c-1.6,0-2.4-0.7-2.4-2V1.9c0-1.3,0.8-1.9,2.4-1.9s2.4,0.6,2.4,1.9v2.9
	C28.2,6.2,27.4,6.8,25.8,6.8L25.8,6.8z M27.3,1.9c0-0.6-0.5-1-1.5-1s-1.5,0.3-1.5,1v2.9c0,0.6,0.5,1,1.5,1v0c1,0,1.5-0.3,1.5-1V1.9
	L27.3,1.9z M22.4,0v1h-1.9v5.8h-1V1h-1.9V0H22.4L22.4,0z M16.6,0v1h-1.9v5.8h-1V1h-1.9V0H16.6L16.6,0z M10.8,6.8h-1v-2
	c0-0.6-0.5-0.9-1.5-0.9c-0.9,0-1.4,0.3-1.5,0.9v2h-1V1.9C5.9,0.6,6.7,0,8.4,0s2.4,0.6,2.4,1.9V6.8L10.8,6.8z M9.8,1.9
	c0-0.6-0.5-1-1.5-1s-1.5,0.3-1.5,1l0,1.2C7.3,3,7.8,2.9,8.4,2.9C9,2.9,9.4,3,9.8,3.2L9.8,1.9z"/>
</svg>
