<?xml version="1.0" encoding="utf-8"?>
<!-- Generator: Adobe Illustrator 22.1.0, SVG Export Plug-In . SVG Version: 6.00 Build 0)  -->
<svg version="1.1" id="Capa_1" xmlns="http://www.w3.org/2000/svg" xmlns:xlink="http://www.w3.org/1999/xlink" x="0px" y="0px"
	 width="512px" height="512px" viewBox="0 0 512 512" style="enable-background:new 0 0 512 512;" xml:space="preserve">
<g>
	<g>
		<path d="M502,452h-0.2c6.4-8.4,10.2-19,10.2-30.4c0-11-3.7-21.9-10.4-30.6l-58.1-75.8c-3.4-4.4-5.2-9.9-5.2-15.4
			c0-6,2.1-11.7,5.9-16.3l15.4-18.4c5.1-6.1,6.5-14.5,3.5-21.9c-2.5-6.3-7.8-10.9-14.4-12.7c-6.6-1.8-13.4-0.4-18.8,3.8l-51,39.8
			c-13.4,10.5-21.1,26.3-21.1,43.3c0,15,6.2,29.5,17,39.8l42.3,40.3c5.4,5.2,8.5,12.4,8.5,20c0,9-4.4,17.4-11.8,22.6L397,452h-1h-4
			c-22.9,0-43.2-13.6-52-34.8c0,0,0,0,0,0c-9.4-22.8-25.5-41.3-45.4-53.8L388.5,201c1.8-3.1,1.8-6.9,0-10s-5.1-5-8.7-5h-55.2
			c-3.6,0-6.9,1.9-8.7,5l-28.7,49.8c-2.8,4.8-1.1,10.9,3.7,13.7c4.8,2.8,10.9,1.1,13.7-3.7l25.8-44.8h32.1l-85.7,148.4
			c-8.8-3.6-18.2-6.1-27.9-7.3l23.3-40.4c2.8-4.8,1.1-10.9-3.7-13.7c-4.8-2.8-10.9-1.1-13.7,3.7l-28.6,49.6
			c-43.8,2.7-82.3,30-99.2,71c-6.8,16.4-20.6,28.3-37.1,32.8V415c0-9.4,3.7-18.6,10.5-25.9c10-10.8,15.5-24.8,15.5-39.4
			c0-15.2-5.8-29.5-16.4-40.4c-10.5-10.9-24.7-17.1-39.8-17.6c-15.7-0.5-30.6,5.3-42,16.4C6.4,319.1,0.1,333.8,0,349.5
			c0,15.1,5.7,29.4,16.1,40.2c6.4,6.7,9.9,15.7,9.9,25.2v37H10c-5.5,0-10,4.5-10,10v40c0,5.5,4.5,10,10,10h492c5.5,0,10-4.5,10-10
			v-40C512,456.5,507.5,452,502,452z M388.7,342.8c-6.9-6.6-10.8-15.8-10.8-25.3c0-10.8,4.9-20.9,13.5-27.6l51-39.8
			c0.4-0.3,0.8-0.4,1.3-0.3c0.5,0.1,0.8,0.4,1,0.9c0.2,0.5,0.1,1.1-0.2,1.5l-15.4,18.4c-6.9,8.2-10.6,18.5-10.6,29.2
			c0,9.9,3.3,19.7,9.3,27.6l58.1,75.8c4,5.3,6.3,11.8,6.3,18.5c0,16.7-13.6,30.4-30.4,30.4H431c9.3-8.9,14.8-21.3,14.8-34.4
			c0-12.9-5.4-25.5-14.7-34.4L388.7,342.8z M20,349.5c0-10.2,4.2-19.8,11.7-27.1c7.5-7.3,17.3-11.1,27.5-10.8
			c20.6,0.7,36.8,17.3,36.8,38c0,9.6-3.6,18.8-10.1,25.8c-10.2,11-15.9,25-15.9,39.5v37H46v-37c0-14.7-5.5-28.6-15.5-39.1
			C23.7,368.8,20,359.4,20,349.5z M20,492v-20h60c0.9,0,1.8-0.1,2.7-0.4c27.9-2.7,52.1-20.5,62.9-46.8c4.9-11.8,11.9-22.2,20.5-30.9
			h61.4c5.5,0,10-4.5,10-10s-4.5-10-10-10h-32.2c11.8-5.2,24.8-8,38.3-8c35,0,66.6,18.9,83.2,49H219c-5.5,0-10,4.5-10,10
			s4.5,10,10,10h107.7c3.8,6.4,8.5,12.1,13.8,17h-66.9c-5.5,0-10,4.5-10,10s4.5,10,10,10H492v20L20,492L20,492z"/>
	</g>
</g>
<g>
	<g>
		<path d="M285.5,268.9c-1.9-1.9-4.4-2.9-7.1-2.9s-5.2,1.1-7.1,2.9c-1.9,1.9-2.9,4.4-2.9,7.1c0,2.6,1.1,5.2,2.9,7.1
			c1.9,1.9,4.4,2.9,7.1,2.9s5.2-1.1,7.1-2.9c1.9-1.9,2.9-4.4,2.9-7.1C288.4,273.3,287.4,270.8,285.5,268.9z"/>
	</g>
</g>
<g>
	<g>
		<path d="M164.6,235.8c-3.6,0-6.6-3-6.6-6.6c0-5.5-4.5-10-10-10s-10,4.5-10,10c0,14.7,11.9,26.6,26.6,26.6
			c18.4,0,33.5-15,33.5-33.5c0-23.8-19.4-43.2-43.2-43.2c-31.4,0-56.9,25.5-56.9,56.9c0,42.1,34.2,76.3,76.3,76.3
			c5.5,0,10-4.5,10-10s-4.5-10-10-10c-31,0-56.3-25.3-56.3-56.3c0-20.3,16.6-36.9,36.9-36.9c12.8,0,23.2,10.4,23.2,23.2
			C178,229.7,172,235.8,164.6,235.8z"/>
	</g>
</g>
<g>
	<g>
		<path d="M241.7,0c-23.8,0-43.2,19.4-43.2,43.2c0,18.5,15,33.5,33.5,33.5c14.7,0,26.6-11.9,26.6-26.6c0-5.5-4.5-10-10-10
			s-10,4.5-10,10c0,3.6-3,6.6-6.6,6.6c-7.4,0-13.5-6-13.5-13.5c0-12.8,10.4-23.2,23.2-23.2c20.3,0,36.9,16.6,36.9,36.9
			c0,31-25.3,56.3-56.3,56.3c-5.5,0-10,4.5-10,10s4.5,10,10,10c42.1,0,76.3-34.2,76.3-76.3C298.6,25.5,273.1,0,241.7,0z"/>
	</g>
</g>
<g>
	<g>
		<path d="M184,452h-25c-5.5,0-10,4.5-10,10s4.5,10,10,10h25c5.5,0,10-4.5,10-10S189.5,452,184,452z"/>
	</g>
</g>
<g>
	<g>
		<path d="M240,454.9c-1.9-1.9-4.4-2.9-7.1-2.9c-2.6,0-5.2,1.1-7.1,2.9c-1.9,1.9-2.9,4.4-2.9,7.1s1.1,5.2,2.9,7.1
			c1.9,1.9,4.4,2.9,7.1,2.9c2.6,0,5.2-1.1,7.1-2.9c1.9-1.9,2.9-4.4,2.9-7.1C243,459.4,241.9,456.8,240,454.9z"/>
	</g>
</g>
</svg>
