<?xml version="1.0" encoding="utf-8"?>
<!-- Generator: Adobe Illustrator 22.1.0, SVG Export Plug-In . SVG Version: 6.00 Build 0)  -->
<svg version="1.1" id="Layer_1" xmlns="http://www.w3.org/2000/svg" xmlns:xlink="http://www.w3.org/1999/xlink" x="0px" y="0px"
	 width="491.7px" height="452.3px" viewBox="0 0 491.7 452.3" style="enable-background:new 0 0 491.7 452.3;" xml:space="preserve"
	>
<g>
	<path d="M87.2,452.3c-23.3,0-45.2-9.1-61.7-25.6c-34-34-34-89.4,0-123.4L295.2,33.7C316.9,12,345.8,0,376.6,0
		c30.8,0,59.7,12,81.4,33.7c21.7,21.7,33.7,50.6,33.7,81.4c0,30.8-12,59.6-33.7,81.4L245.7,408.8c-6.4,6.4-16.7,6.4-23.1,0
		c-6.4-6.4-6.4-16.7,0-23.1l212.3-212.3c15.6-15.6,24.2-36.3,24.2-58.3c0-22-8.6-42.7-24.2-58.3c-15.6-15.6-36.3-24.2-58.3-24.2
		c-22,0-42.7,8.6-58.3,24.2L48.6,326.5c-21.3,21.3-21.3,55.9,0,77.2c20.6,20.6,56.6,20.6,77.2,0l181.1-181.1
		c4.9-4.9,7.7-11.7,7.7-18.7c0-7-2.8-13.7-7.8-18.7c-10.3-10.3-27.1-10.3-37.4,0L145.9,308.9c-6.4,6.4-16.7,6.4-23.1,0
		c-6.4-6.4-6.4-16.7,0-23.1l123.7-123.7c23-23,60.5-23,83.5,0c11.2,11.2,17.3,26,17.3,41.8c0,15.5-6.3,30.8-17.3,41.8L148.9,426.8
		C132.4,443.3,110.5,452.3,87.2,452.3z"/>
</g>
</svg>
