<?xml version="1.0" encoding="utf-8"?>
<!-- Generator: Adobe Illustrator 22.1.0, SVG Export Plug-In . SVG Version: 6.00 Build 0)  -->
<svg version="1.1" id="Layer_1" xmlns="http://www.w3.org/2000/svg" xmlns:xlink="http://www.w3.org/1999/xlink" x="0px" y="0px"
	 width="388.2px" height="512px" viewBox="0 0 388.2 512" style="enable-background:new 0 0 388.2 512;" xml:space="preserve">
<g>
	<g>
		<path d="M259.5,63.8C203.1,35.3,135.3,46.2,90.6,90.9c-51.9,51.9-57.1,134.6-12.1,192.5c1.6,2,4,3.1,6.4,3.1
			c1.7,0,3.5-0.6,4.9-1.7c3.5-2.7,4.1-7.8,1.4-11.3c-40-51.4-35.4-125,10.8-171.2c39.7-39.7,100-49.4,150.1-24.1
			c4,2,8.8,0.4,10.8-3.6C265,70.7,263.4,65.8,259.5,63.8z"/>
	</g>
</g>
<g>
	<g>
		<path d="M323.9,128.2c-2-4-6.9-5.6-10.8-3.6c-4,2-5.6,6.9-3.6,10.8c25.3,50.1,15.6,110.4-24.1,150.1
			c-46.2,46.1-119.7,50.8-171.2,10.8c-3.5-2.7-8.6-2.1-11.3,1.4c-2.7,3.5-2.1,8.6,1.4,11.3c26.3,20.5,57.9,30.6,89.3,30.6
			c37.5,0,75-14.4,103.2-42.7C341.4,252.4,352.3,184.6,323.9,128.2z"/>
	</g>
</g>
<g>
	<g>
		<path d="M303,97.5c-2-2.3-4.1-4.5-6.2-6.6c-2.1-2.1-4.4-4.2-6.6-6.2c-3.3-3-8.4-2.6-11.4,0.7c-3,3.3-2.6,8.4,0.7,11.4
			c2,1.8,4,3.7,5.9,5.6c1.9,1.9,3.8,3.9,5.6,5.9c1.6,1.8,3.8,2.7,6,2.7c1.9,0,3.8-0.7,5.3-2C305.7,105.9,306,100.8,303,97.5z"/>
	</g>
</g>
<g>
	<g>
		<path d="M384.2,208.4c5.4-8.8,5.4-19.8,0-28.6l-10.6-17.4c-1.4-2.3-1.9-5-1.5-7.7l3.2-20.1c1.6-10.2-2.6-20.4-11-26.5l-16.5-12
			c-2.2-1.6-3.7-3.9-4.4-6.5l-4.8-19.8c-2.4-10.1-10.2-17.8-20.2-20.2l-19.8-4.8c-2.6-0.6-4.9-2.2-6.5-4.4l-12-16.5
			c-6.1-8.4-16.3-12.6-26.5-11l-20.1,3.2c-2.7,0.4-5.4-0.1-7.7-1.5L208.4,4c-8.8-5.4-19.8-5.4-28.6,0l-17.4,10.6
			c-2.3,1.4-5,1.9-7.7,1.5L134.6,13c-10.2-1.6-20.4,2.6-26.5,11l-12,16.5c-1.6,2.2-3.9,3.7-6.5,4.4l-19.8,4.8
			C59.8,52,52,59.8,49.6,69.8l-4.8,19.8c-0.6,2.6-2.2,4.9-4.4,6.5l-16.5,12c-8.4,6.1-12.6,16.3-11,26.5l3.2,20.1
			c0.4,2.7-0.1,5.4-1.5,7.7L4,179.8c-5.4,8.8-5.4,19.8,0,28.6l10.6,17.4c1.4,2.3,1.9,5,1.5,7.7L13,253.6c-1.6,10.2,2.6,20.4,11,26.5
			l16.5,12c2.2,1.6,3.7,3.9,4.4,6.5l4.8,19.8c2.4,10.1,10.2,17.8,20.2,20.2l8.3,2l-56,124.8c-1.2,2.7-0.9,5.7,0.9,8.1
			c1.7,2.3,4.6,3.6,7.5,3.2l45-5.4l25.9,37.2c1.5,2.2,4,3.5,6.6,3.5c0.3,0,0.5,0,0.8,0c2.9-0.3,5.4-2.1,6.6-4.7l57.1-127.5l7.2,4.4
			c4.4,2.7,9.4,4,14.3,4c4.9,0,9.9-1.3,14.3-4l7.5-4.6l57.2,127.6c1.2,2.7,3.7,4.5,6.6,4.7c0.3,0,0.5,0,0.8,0c2.6,0,5.1-1.3,6.6-3.5
			l25.9-37.2l45,5.4c2.9,0.3,5.7-0.9,7.5-3.2c1.7-2.3,2.1-5.4,0.9-8.1l-56-124.9l8-1.9c10.1-2.4,17.8-10.2,20.2-20.2l4.8-19.8
			c0.6-2.6,2.2-4.9,4.4-6.5l16.5-12c8.4-6.1,12.6-16.3,11-26.5l-3.2-20.1c-0.4-2.7,0.1-5.4,1.5-7.7L384.2,208.4z M106.5,487.6
			L86,458.2c-1.7-2.4-4.6-3.8-7.6-3.4L42.7,459l51-113.7c0.9,0.7,1.8,1.5,2.5,2.5l12,16.5c1.1,1.6,2.4,3,3.8,4.2l-26.8,59.9
			c-1.8,4.1,0,8.8,4.1,10.7c1.1,0.5,2.2,0.7,3.3,0.7c3.1,0,6-1.8,7.4-4.8l26.7-59.6c2.6,0.4,5.3,0.4,8.1-0.1l20.1-3.2
			c1.2-0.2,2.4-0.2,3.6,0L106.5,487.6z M345.8,459l-35.7-4.3c-3-0.4-5.9,1-7.6,3.4L282,487.6L230.2,372c1.1-0.1,2.2-0.1,3.3,0
			l20.1,3.2c2.8,0.4,5.6,0.4,8.4,0l26.8,59.7c1.3,3,4.3,4.8,7.4,4.8c1.1,0,2.2-0.2,3.3-0.7c4.1-1.8,5.9-6.6,4.1-10.7l-26.9-60.1
			c1.3-1.2,2.5-2.5,3.6-4l12-16.5c0.8-1,1.7-1.9,2.7-2.6L345.8,459z M370.4,200l-10.6,17.4c-3.4,5.6-4.7,12.2-3.7,18.6l3.2,20.1
			c0.7,4.2-1.1,8.4-4.5,10.9l-16.5,12c-5.3,3.8-9,9.4-10.5,15.8l-4.8,19.8c-1,4.2-4.2,7.4-8.4,8.4l-19.8,4.8
			c-6.3,1.5-11.9,5.3-15.8,10.5l-12,16.5c-2.5,3.5-6.7,5.2-10.9,4.5l-20.1-3.2c-6.4-1-13,0.3-18.6,3.7L200,370.4
			c-3.6,2.2-8.2,2.2-11.8,0l-17.4-10.6c-4.3-2.6-9.3-4-14.3-4c-1.4,0-2.8,0.1-4.3,0.3l-20.1,3.2c-4.2,0.7-8.4-1.1-10.9-4.5l-12-16.5
			c-3.8-5.3-9.4-9-15.8-10.5l-19.8-4.8c-4.2-1-7.4-4.2-8.4-8.4l-4.8-19.8c-1.5-6.3-5.3-11.9-10.5-15.8l-16.4-12
			c-3.5-2.5-5.2-6.7-4.5-10.9l3.2-20.1c1-6.4-0.3-13-3.7-18.6L17.8,200c-2.2-3.6-2.2-8.2,0-11.8l10.6-17.4
			c3.4-5.6,4.7-12.2,3.7-18.6l-3.2-20.1c-0.7-4.2,1.1-8.4,4.5-10.9l16.5-12c5.3-3.8,9-9.4,10.5-15.8l4.8-19.8c1-4.2,4.2-7.4,8.4-8.4
			l19.8-4.8c6.3-1.5,11.9-5.3,15.8-10.5l12-16.5c2.5-3.5,6.7-5.2,10.9-4.5l20.1,3.2c6.4,1,13-0.3,18.6-3.7l17.4-10.6
			c3.6-2.2,8.2-2.2,11.8,0l17.4,10.6c5.6,3.4,12.2,4.7,18.6,3.7l20.1-3.2c4.2-0.7,8.4,1.1,10.9,4.5l12,16.5c3.8,5.3,9.4,9,15.8,10.5
			l19.8,4.8c4.2,1,7.4,4.2,8.4,8.4l4.8,19.8c1.5,6.3,5.3,11.9,10.5,15.8l16.5,12c3.5,2.5,5.2,6.7,4.5,10.9l-3.2,20.1
			c-1,6.4,0.3,13,3.7,18.6l10.6,17.4C372.6,191.8,372.6,196.4,370.4,200z"/>
	</g>
</g>
<g>
	<g>
		<path d="M288.5,169c-1.8-5.5-6.4-9.3-12.1-10l-48.6-5.8l-20.5-44.4c-2.4-5.2-7.5-8.5-13.2-8.5c-5.8,0-10.8,3.2-13.2,8.5
			l-20.5,44.4l-48.6,5.8c-5.7,0.7-10.4,4.5-12.1,10c-1.8,5.5-0.3,11.3,4,15.2l35.9,33.2l-9.5,48c-1.1,5.6,1.1,11.3,5.7,14.6
			c2.6,1.9,5.6,2.8,8.6,2.8c2.4,0,4.9-0.6,7.1-1.9l42.7-23.9l42.7,23.9c5,2.8,11,2.5,15.7-0.9c4.7-3.4,6.9-9,5.7-14.6l-9.5-48
			l35.9-33.2C288.8,180.3,290.3,174.5,288.5,169z M234.4,208.6c-2.1,1.9-3,4.7-2.4,7.5l9.8,49.1L198,240.8c-1.2-0.7-2.6-1-3.9-1
			s-2.7,0.3-3.9,1l-43.7,24.4l9.8-49.1c0.5-2.8-0.4-5.6-2.4-7.5l-36.7-34l49.7-5.9c2.8-0.3,5.2-2.1,6.4-4.6l21-45.4l21,45.4
			c1.2,2.5,3.6,4.3,6.4,4.6l49.7,5.9L234.4,208.6z"/>
	</g>
</g>
</svg>
