<?xml version="1.0" encoding="utf-8"?>
<!-- Generator: Adobe Illustrator 22.1.0, SVG Export Plug-In . SVG Version: 6.00 Build 0)  -->
<svg version="1.1" id="Capa_1" xmlns="http://www.w3.org/2000/svg" xmlns:xlink="http://www.w3.org/1999/xlink" x="0px" y="0px"
	 width="435.4px" height="512px" viewBox="0 0 435.4 512" style="enable-background:new 0 0 435.4 512;" xml:space="preserve">
<g>
	<path d="M426.4,409.2c-0.4,0-37.5-0.6-43.5-18.1c1.4-1.9,2.9-3.9,4.5-5.9c0,0,0,0,0-0.1c2.2-2.9,4.5-5.7,6.9-8.7
		c19.3-24.2,41.1-51.7,41.1-93c0-3-0.1-6-0.2-9c-0.2-4.1-3.8-7.3-7.9-7.1c-4.1,0.2-7.3,3.8-7.1,7.9c0.1,2.7,0.2,5.5,0.2,8.2
		c0,25.6-9.7,45.2-22,62.8c0-0.1,0-0.1,0-0.2c0.1-1.5,0.2-2.9,0.3-4.4c0-0.2,0-0.5,0-0.7c0.1-1.5,0.1-3,0.1-4.5
		c0-26.8-6.3-48.3-18.8-63.8c0,0,0,0,0,0c0,0,0-0.1-0.1-0.1c-7.6-9.5-17.7-16.9-30-22v-33.3c0-0.1,0-0.2,0-0.3v-14.7
		c0-7.6-2.8-14.6-7.5-20c13.7,4,25.8,9.4,36.1,16.2c18.2,12.1,30.7,28.6,36.9,49.2c1,3.2,4,5.3,7.2,5.3c0.7,0,1.5-0.1,2.2-0.3
		c4-1.2,6.2-5.4,5-9.4c-12.5-41.1-46.2-68.3-97.5-79c-2.4-17.6-17.5-31.2-35.8-31.2c-11.6,0-22,5.5-28.6,14.1
		c-6.6-8.6-17-14.1-28.6-14.1c-11.6,0-22,5.5-28.6,14.1c-6.6-8.6-17-14.1-28.6-14.1c-11.6,0-22,5.5-28.6,14.1
		c-6.6-8.6-17-14.1-28.6-14.1c-19.5,0-35.4,15.5-36.1,34.8C47,179.9,0,209.9,0,283.4c0,41.3,21.8,68.8,41.1,93
		c2.4,3,4.7,5.9,6.9,8.7c0,0,0,0,0,0.1c1.6,2,3,4,4.5,5.9c-6,17.5-43.1,18.1-43.5,18.1c-3.3,0-6.1,2.1-7.1,5.2s0.1,6.5,2.8,8.4
		l17.8,12.8l-5.8,21.8c-0.6,2.3-0.1,4.6,1.3,6.5c1.4,1.8,3.6,2.9,5.9,2.9c0.4,0,10.9,0,22.8-2.8c16.8-3.9,28-11.1,33.3-21.5
		c20.7-30.3,7.9-68.7-3.3-102.6c-7.8-23.4-15.1-45.4-9-58.3c8.7-10.5,21-17.6,37.5-21.6c5.7,3.7,12.4,5.9,19.7,5.9
		c9.5,0,18.1-3.7,24.6-9.7c3,0,5.8,0.1,8.4,0.2c6.4,5.9,15,9.4,24.3,9.4c11.6,0,22-5.5,28.6-14.1c6.6,8.6,17,14.1,28.6,14.1
		c4.1,0,7.5-3.4,7.5-7.5s-3.4-7.5-7.5-7.5c-9.4,0-17.3-6.1-20.1-14.6c7,5.5,15.8,8.7,25.4,8.7h19.2c2.5,5.4,6.4,10.2,11.2,13.7v6.3
		c0,1.7-1.4,3.1-3.1,3.1h-5.7c-31.7,0-57.5,25.8-57.5,57.5c0,4.1,3.4,7.5,7.5,7.5s7.5-3.4,7.5-7.5c0-23.4,19.1-42.5,42.5-42.5h5.7
		c10,0,18.1-8.1,18.1-18.1v-10.2c0,0,0,0,0,0v-17.3c0-4.1-3.4-7.5-7.5-7.5h-37.9c-14.6,0-26.4-11.9-26.4-26.4v-13.9
		c0-1.8,1.4-3.2,3.2-3.2h46.5c0,0,0,0,0.1,0s0,0,0.1,0h51.3c8.6,0,15.7,7,15.7,15.7v15.1c0,0.1,0,0.2,0,0.3v118c0,0.8,0,1.5-0.1,2.2
		c-0.7,8.3-5.1,15.9-12,20.7c-0.5,0.3-1,0.6-1.5,0.9c-0.5,0.3-1.1,0.6-1.6,0.9c-3.9,2-8.2,3-12.5,3h-8.6c-4.1,0-7.5,3.4-7.5,7.5
		v48.7H151.4v-48.7c0-4.1-3.4-7.5-7.5-7.5h-16.5c-13.1,0-23.7-10.6-23.7-23.7v-53.8c0-4.1-3.4-7.5-7.5-7.5s-7.5,3.4-7.5,7.5v53.8
		c0,21.3,17.4,38.7,38.7,38.7h9v41.2h-1.6c-11.1,0-20.1,9-20.1,20.1v52.3c0,11.1,9,20.1,20.1,20.1h119c4.1,0,7.5-3.4,7.5-7.5
		s-3.4-7.5-7.5-7.5h-119c-2.8,0-5.1-2.3-5.1-5.1v-52.3c0-2.8,2.3-5.1,5.1-5.1h9c0,0,0,0,0,0s0,0,0,0h154.7c0,0,0,0,0,0s0,0,0,0h9
		c2.8,0,5.1,2.3,5.1,5.1v52.3c0,2.8-2.3,5.1-5.1,5.1h-23.9c-4.1,0-7.5,3.4-7.5,7.5s3.4,7.5,7.5,7.5h23.9c11.1,0,20.1-9,20.1-20.1
		v-52.3c0-11.1-9-20.1-20.1-20.1h-1.6v-3.8c0,0,0-0.1,0-0.1v-37.4h1.1c6.7,0,13.3-1.6,19.3-4.6c0,0,0,0,0.1,0c0,0,0,0,0.1,0
		c0.8-0.4,1.6-0.9,2.4-1.3c12.9-7.7,20.9-21.7,20.9-36.7c0,0,0-0.1,0-0.1v-68.3c7.1,3.8,13.1,8.5,17.9,14.4
		c6.2,12.9-1.2,34.9-9,58.3c-11.3,33.9-24.1,72.3-3.3,102.6c5.3,10.4,16.5,17.6,33.3,21.5c11.9,2.7,22.3,2.8,22.8,2.8
		c2.3,0,4.5-1.1,5.9-2.9c1.4-1.8,1.9-4.2,1.3-6.5l-5.8-21.8l17.8-12.8c2.6-1.9,3.7-5.3,2.8-8.4C432.6,411.3,429.7,409.2,426.4,409.2
		z M67.4,433.8c-0.2,0.5-0.4,1.1-0.7,1.6c0,0,0,0,0,0c-3.8,7.9-14.7,12-23.2,14c-3.4,0.8-6.8,1.3-9.7,1.7l4.4-16.6
		c0.8-3-0.3-6.2-2.9-8l-6.2-4.4c11.3-2.3,24.6-7.1,32.5-16.7c0.1,0.1,0.1,0.2,0.2,0.4c0.1,0.2,0.2,0.3,0.3,0.5
		c0.3,0.6,0.6,1.1,0.8,1.7c0.1,0.1,0.1,0.3,0.2,0.4c0.3,0.7,0.6,1.3,0.9,1.9c0.1,0.1,0.1,0.2,0.2,0.4c0.2,0.5,0.5,1.1,0.7,1.6
		c0.1,0.2,0.1,0.3,0.2,0.5c0.2,0.6,0.5,1.3,0.7,1.9c0,0,0,0.1,0,0.1c0.2,0.6,0.4,1.2,0.6,1.7c0.1,0.2,0.1,0.3,0.1,0.5
		c0.2,0.5,0.3,1,0.4,1.6c0,0.1,0,0.2,0.1,0.3c0.2,0.6,0.3,1.2,0.4,1.8c0,0.1,0.1,0.3,0.1,0.4c0.1,0.5,0.2,1,0.3,1.4
		c0,0.1,0,0.3,0.1,0.4c0.1,0.6,0.2,1.2,0.2,1.8c0,0.1,0,0.2,0,0.3c0,0.5,0.1,1,0.1,1.5c0,0.2,0,0.3,0,0.5c0,0.6,0,1.2,0,1.8
		C68.2,430.4,67.9,432.1,67.4,433.8z M75.9,400.1c-0.1-0.2-0.2-0.4-0.3-0.7c-0.1-0.3-0.3-0.6-0.4-0.9c-0.3-0.5-0.6-1.1-0.9-1.6
		c-0.1-0.2-0.3-0.5-0.4-0.7c-0.4-0.7-0.8-1.5-1.3-2.2c-0.1-0.1-0.1-0.2-0.2-0.2c-0.4-0.6-0.8-1.3-1.2-1.9c-0.2-0.2-0.3-0.5-0.5-0.7
		c-0.3-0.5-0.6-0.9-0.9-1.4c-0.2-0.3-0.3-0.5-0.5-0.8c-0.3-0.5-0.6-0.9-0.9-1.3c-0.1-0.2-0.3-0.4-0.4-0.7c-0.4-0.6-0.8-1.2-1.2-1.8
		c0,0-0.1-0.1-0.1-0.1c0,0,0,0,0,0c0,0,0,0,0,0c-2-2.8-4.1-5.6-6.3-8.5c-0.2-0.3-0.3-0.7-0.5-1c-0.2-0.4-0.3-0.7-0.5-1.1
		c-0.2-0.5-0.4-1-0.6-1.4c-0.1-0.3-0.3-0.7-0.4-1c-0.2-0.5-0.4-1-0.6-1.5c-0.1-0.3-0.3-0.7-0.4-1c-0.2-0.5-0.4-1-0.5-1.5
		c-0.1-0.3-0.2-0.6-0.3-1c-0.2-0.5-0.3-1-0.5-1.6c-0.1-0.3-0.2-0.6-0.3-0.9c-0.2-0.5-0.3-1.1-0.5-1.6c-0.1-0.3-0.2-0.6-0.3-0.9
		c-0.2-0.6-0.3-1.1-0.5-1.7c-0.1-0.3-0.1-0.5-0.2-0.8c-0.2-0.6-0.3-1.2-0.4-1.8c-0.1-0.2-0.1-0.5-0.2-0.7c-0.1-0.6-0.3-1.3-0.4-1.9
		c0-0.2-0.1-0.4-0.1-0.6c-0.1-0.7-0.3-1.4-0.4-2.1c0-0.1-0.1-0.3-0.1-0.4c-0.1-0.8-0.2-1.5-0.4-2.3c0-0.1,0-0.1,0-0.2
		c-0.6-4.3-0.9-8.6-0.9-13.1c0-0.2,0-0.4,0-0.6c0-1.5,0-3,0.1-4.4c0-0.6,0.1-1.2,0.1-1.8c0.1-1.1,0.1-2.2,0.2-3.3
		c0-0.6,0.1-1.2,0.1-1.7c0.1-1.4,0.3-2.8,0.4-4.2c0-0.3,0.1-0.7,0.1-1c0.2-1.3,0.4-2.6,0.6-3.9c0-0.2,0.1-0.4,0.1-0.6
		c2.3,9.5,5.6,19.5,9,29.7C68.6,363.4,75,382.6,75.9,400.1z M55.5,272.6C55.5,272.6,55.4,272.7,55.5,272.6c-0.1,0.1-0.1,0.1-0.1,0.1
		c-12.5,15.5-18.8,37-18.8,63.8c0,1.5,0,3,0.1,4.5c0,0.2,0,0.4,0,0.6c0.1,1.5,0.2,3,0.3,4.5c0,0,0,0.1,0,0.1
		c-12.3-17.6-22-37.2-22-62.8c0-50.8,24.8-84.4,73.7-99.9v46.3c0,6.5,1.7,12.6,4.8,17.9C77.5,252.8,64.7,261.2,55.5,272.6z
		 M203.2,229.8c0,11.6-9.5,21.1-21.1,21.1c-11.6,0-21.1-9.5-21.1-21.1V211c0-4.1-3.4-7.5-7.5-7.5s-7.5,3.4-7.5,7.5v18.8
		c0,11.6-9.5,21.1-21.1,21.1c-11.6,0-21.1-9.5-21.1-21.1v-60.6c0-11.6,9.5-21.1,21.1-21.1c11.6,0,21.1,9.5,21.1,21.1V181
		c0,4.1,3.4,7.5,7.5,7.5s7.5-3.4,7.5-7.5v-11.8c0-11.6,9.5-21.1,21.1-21.1c11.6,0,21.1,9.5,21.1,21.1c0,0,0,0,0,0L203.2,229.8
		C203.2,229.8,203.2,229.8,203.2,229.8z M260.4,171.5h-39.1c-1.1,0-2.2,0.1-3.2,0.3v-2.6c0,0,0,0,0,0c0-11.6,9.5-21.1,21.1-21.1
		c11.6,0,21.1,9.5,21.1,21.1L260.4,171.5L260.4,171.5z M317.7,171.5h-42.3v-2.3c0-11.6,9.5-21.1,21.1-21.1
		c11.6,0,21.1,9.5,21.1,21.1V171.5z M366,389.1c-0.2,0.3-0.3,0.5-0.5,0.8c-0.3,0.5-0.6,0.9-0.9,1.4c-0.2,0.2-0.3,0.5-0.5,0.7
		c-0.4,0.6-0.8,1.3-1.2,1.9c0,0.1-0.1,0.1-0.1,0.2c-0.4,0.7-0.9,1.5-1.3,2.2c-0.1,0.2-0.3,0.5-0.4,0.7c-0.3,0.5-0.6,1-0.9,1.6
		c-0.2,0.3-0.3,0.6-0.5,0.9c-0.1,0.2-0.2,0.4-0.3,0.6c0.9-17.5,7.3-36.7,13.5-55.5c3.4-10.2,6.7-20.2,9-29.7c0,0.2,0.1,0.4,0.1,0.6
		c0.2,1.3,0.4,2.7,0.6,4c0,0.2,0.1,0.5,0.1,0.7c0.2,1.4,0.3,2.9,0.5,4.4c0,0.5,0.1,1.1,0.1,1.6c0.1,1.1,0.1,2.3,0.2,3.4
		c0,0.6,0.1,1.1,0.1,1.7c0.1,1.5,0.1,3.1,0.1,4.7c0,0.1,0,0.3,0,0.4c0,2.7-0.1,5.3-0.3,7.9c0,0,0,0,0,0c-0.1,0.8-0.1,1.7-0.2,2.5
		c0,0.1,0,0.2,0,0.4c-0.1,0.7-0.2,1.5-0.3,2.2c0,0.2-0.1,0.4-0.1,0.6c-0.1,0.7-0.2,1.3-0.3,2c0,0.2-0.1,0.5-0.1,0.7
		c-0.1,0.6-0.2,1.2-0.3,1.9c0,0.3-0.1,0.5-0.2,0.8c-0.1,0.6-0.2,1.2-0.4,1.7c-0.1,0.3-0.1,0.6-0.2,0.9c-0.1,0.6-0.3,1.1-0.4,1.7
		c-0.1,0.3-0.2,0.6-0.2,0.9c-0.1,0.5-0.3,1.1-0.4,1.6c-0.1,0.3-0.2,0.6-0.3,0.9c-0.2,0.5-0.3,1-0.5,1.6c-0.1,0.3-0.2,0.6-0.3,1
		c-0.2,0.5-0.3,1-0.5,1.5c-0.1,0.3-0.2,0.7-0.3,1c-0.2,0.5-0.4,1-0.5,1.5c-0.1,0.3-0.2,0.6-0.4,1c-0.2,0.5-0.4,1-0.6,1.5
		c-0.1,0.3-0.3,0.6-0.4,1c-0.2,0.5-0.4,1-0.6,1.5c-0.1,0.3-0.3,0.6-0.4,1c-0.2,0.4-0.3,0.7-0.5,1.1c-2.2,2.9-4.3,5.7-6.3,8.5
		c-0.4,0.6-0.9,1.2-1.3,1.9c-0.1,0.2-0.3,0.4-0.4,0.6C366.7,388.2,366.4,388.6,366,389.1z M397.2,434.5l4.4,16.6
		c-11.8-1.5-28.1-5.7-32.9-15.7c0,0,0,0,0,0c-0.8-1.6-1.2-3.3-1.4-5.1c-0.1-0.6-0.1-1.2-0.1-1.9c0-0.6,0-1.2,0-1.8
		c0-0.2,0-0.3,0-0.5c0-0.5,0.1-1,0.1-1.5c0-0.1,0-0.2,0-0.3c0.1-0.6,0.1-1.2,0.2-1.7c0-0.1,0-0.3,0.1-0.4c0.1-0.5,0.2-0.9,0.2-1.4
		c0-0.2,0.1-0.3,0.1-0.5c0.1-0.6,0.3-1.2,0.4-1.8c0-0.1,0.1-0.2,0.1-0.3c0.1-0.5,0.3-1,0.4-1.5c0.1-0.2,0.1-0.4,0.2-0.5
		c0.2-0.5,0.3-1.1,0.5-1.6c0-0.1,0-0.1,0.1-0.2c0.2-0.6,0.4-1.2,0.7-1.8c0.1-0.2,0.1-0.4,0.2-0.5c0.2-0.5,0.4-1,0.6-1.5
		c0.1-0.2,0.1-0.3,0.2-0.5c0.3-0.6,0.6-1.2,0.9-1.9c0.1-0.2,0.2-0.3,0.3-0.5c0.2-0.5,0.5-1,0.8-1.5c0.1-0.2,0.2-0.4,0.3-0.6
		c0.1-0.1,0.1-0.2,0.2-0.3c7.9,9.7,21.2,14.4,32.5,16.7l-6.2,4.4C397.6,428.3,396.4,431.4,397.2,434.5z"/>
	<path d="M143.7,465.8c0,12.1,9.8,21.9,21.9,21.9c12.1,0,21.9-9.8,21.9-21.9c0-12.1-9.8-21.9-21.9-21.9
		C153.5,443.9,143.7,453.7,143.7,465.8z M172.4,465.8c0,3.8-3.1,6.9-6.9,6.9c-3.8,0-6.9-3.1-6.9-6.9c0-3.8,3.1-6.9,6.9-6.9
		C169.3,458.9,172.4,462,172.4,465.8z"/>
	<path d="M133.4,49.2c13.7,4.4,17.8,8.5,22.2,22.2c1.4,4.3,5.4,7.2,9.9,7.2c4.5,0,8.5-2.9,9.9-7.2c4.4-13.7,8.5-17.8,22.2-22.2l0,0
		c4.3-1.4,7.2-5.4,7.2-9.9c0-4.5-2.9-8.5-7.2-9.9c-13.7-4.4-17.8-8.5-22.2-22.2C174,2.9,170.1,0,165.5,0c-4.5,0-8.5,2.9-9.9,7.2
		c-4.4,13.7-8.5,17.8-22.2,22.2c-4.3,1.4-7.2,5.4-7.2,9.9C126.2,43.9,129.1,47.8,133.4,49.2z M165.5,22.7c3.9,7.6,9,12.7,16.6,16.6
		c-7.6,3.9-12.7,9-16.6,16.6c-3.9-7.6-9-12.7-16.6-16.6C156.6,35.4,161.6,30.4,165.5,22.7z"/>
	<path d="M30.4,127.9c13.7,4.4,17.8,8.5,22.2,22.2c1.4,4.3,5.4,7.2,9.9,7.2c0,0,0,0,0,0c4.5,0,8.5-2.9,9.9-7.2
		c4.4-13.7,8.5-17.8,22.2-22.2c4.3-1.4,7.2-5.4,7.2-9.9s-2.9-8.5-7.2-9.9c-13.7-4.4-17.8-8.5-22.2-22.2c-1.4-4.3-5.4-7.2-9.9-7.2h0
		c-4.5,0-8.5,2.9-9.9,7.2c-4.4,13.7-8.5,17.8-22.2,22.2c-4.3,1.4-7.2,5.4-7.2,9.9S26.1,126.5,30.4,127.9z M62.5,101.4
		c3.9,7.6,9,12.7,16.6,16.6c-7.6,3.9-12.7,9-16.6,16.6c-3.9-7.6-9-12.7-16.6-16.6C53.5,114.1,58.6,109,62.5,101.4z"/>
	<path d="M339.6,114.4c13.7,4.4,17.8,8.5,22.2,22.2c1.4,4.3,5.4,7.2,9.9,7.2c0,0,0,0,0,0c4.5,0,8.5-2.9,9.9-7.2
		c4.4-13.7,8.5-17.8,22.2-22.2c0,0,0,0,0,0c4.3-1.4,7.2-5.4,7.2-9.9c0-4.5-2.9-8.5-7.2-9.9c-13.7-4.4-17.8-8.5-22.2-22.2
		c-1.4-4.3-5.4-7.2-9.9-7.2c0,0,0,0,0,0c-4.5,0-8.5,2.9-9.9,7.2c-4.4,13.7-8.5,17.8-22.2,22.2c-4.3,1.4-7.2,5.4-7.2,9.9
		C332.4,109.1,335.3,113.1,339.6,114.4z M371.7,88c3.9,7.6,9,12.7,16.6,16.6c-7.6,3.9-12.7,9-16.6,16.6c-3.9-7.6-9-12.7-16.6-16.6
		C362.7,100.6,367.8,95.6,371.7,88z"/>
</g>
</svg>
