<?xml version="1.0" encoding="utf-8"?>
<!-- Generator: Adobe Illustrator 22.1.0, SVG Export Plug-In . SVG Version: 6.00 Build 0)  -->
<svg version="1.1" id="Capa_1" xmlns="http://www.w3.org/2000/svg" xmlns:xlink="http://www.w3.org/1999/xlink" x="0px" y="0px"
	 width="48.4px" height="50.8px" viewBox="0 0 48.4 50.8" style="enable-background:new 0 0 48.4 50.8;" xml:space="preserve">
<style type="text/css">
	.st0{stroke:#000000;stroke-width:2;stroke-miterlimit:10;}
	.st1{stroke:#000000;stroke-miterlimit:10;}
</style>
<g>
	<path class="st0" d="M24.2,21.4c3.1,0,5.5-2.5,5.5-5.5s-2.5-5.5-5.5-5.5s-5.5,2.5-5.5,5.5S21.1,21.4,24.2,21.4z M24.2,11.9
		c2.2,0,4,1.8,4,4s-1.8,4-4,4s-4-1.8-4-4S22,11.9,24.2,11.9z"/>
	<path class="st0" d="M24.1,44.2l12.1-17.5c4.6-6.1,3.9-16-1.4-21.3C31.9,2.5,28.1,1,24.1,1s-7.9,1.5-10.8,4.3
		C8,10.6,7.4,20.6,11.9,26.6L24.1,44.2z M14.5,6.4c2.6-2.6,6-4,9.6-4c3.6,0,7,1.4,9.6,4c4.8,4.8,5.4,13.8,1.2,19.3L24.1,41.4
		L13.2,25.7C9.1,20.2,9.7,11.2,14.5,6.4z"/>
	<path class="st1" d="M33.8,36.9c-0.4-0.1-0.8,0.3-0.9,0.7c-0.1,0.4,0.3,0.8,0.7,0.9c8.3,1,12.7,3.6,12.7,5.1
		c0,2.1-8.4,5.1-22.1,5.1s-22.1-3-22.1-5.1c0-1.5,4.4-4.2,12.7-5.1c0.4-0.1,0.7-0.4,0.7-0.9c-0.1-0.4-0.4-0.7-0.9-0.7
		c-8.3,1-14.1,3.7-14.1,6.7c0,3.3,8.1,6.7,23.7,6.7s23.7-3.4,23.7-6.7C47.9,40.6,42.1,37.9,33.8,36.9z"/>
</g>
</svg>
