<?xml version="1.0" encoding="utf-8"?>
<!-- Generator: Adobe Illustrator 22.1.0, SVG Export Plug-In . SVG Version: 6.00 Build 0)  -->
<svg version="1.1" id="Слой_1" xmlns="http://www.w3.org/2000/svg" xmlns:xlink="http://www.w3.org/1999/xlink" x="0px" y="0px"
	 width="50.1px" height="52px" viewBox="0 0 50.1 52" style="enable-background:new 0 0 50.1 52;" xml:space="preserve">
<style type="text/css">
	.st0{clip-path:url(#SVGID_2_);}
	.st1{clip-path:url(#SVGID_2_);fill:none;stroke:#000000;stroke-width:3;stroke-miterlimit:10;}
</style>
<g>
	<defs>
		<rect id="SVGID_1_" y="0" width="50.1" height="52"/>
	</defs>
	<clipPath id="SVGID_2_">
		<use xlink:href="#SVGID_1_"  style="overflow:visible;"/>
	</clipPath>
	<path class="st0" d="M27.4,20h-5.5v-5.5c0-0.5-0.4-0.9-0.9-0.9S20,13.9,20,14.4V20h-5.5c-0.5,0-0.9,0.4-0.9,0.9
		c0,0.5,0.4,0.9,0.9,0.9H20v5.5c0,0.5,0.4,0.9,0.9,0.9s0.9-0.4,0.9-0.9v-5.5h5.5c0.5,0,0.9-0.4,0.9-0.9C28.3,20.4,27.9,20,27.4,20"
		/>
	<path class="st1" d="M27.4,20h-5.5v-5.5c0-0.5-0.4-0.9-0.9-0.9S20,13.9,20,14.4V20h-5.5c-0.5,0-0.9,0.4-0.9,0.9
		c0,0.5,0.4,0.9,0.9,0.9H20v5.5c0,0.5,0.4,0.9,0.9,0.9s0.9-0.4,0.9-0.9v-5.5h5.5c0.5,0,0.9-0.4,0.9-0.9C28.3,20.4,27.9,20,27.4,20z"
		/>
	<path class="st0" d="M48.4,48.9L34.7,34.6c3.5-3.5,5.7-8.4,5.7-13.7c0-10.7-8.7-19.4-19.4-19.4S1.5,10.2,1.5,20.9
		c0,10.7,8.7,19.4,19.4,19.4c4.7,0,9-1.7,12.4-4.5l13.8,14.3c0.2,0.2,0.4,0.3,0.7,0.3c0.2,0,0.5-0.1,0.6-0.3
		C48.7,49.9,48.7,49.3,48.4,48.9 M3.3,20.9c0-9.7,7.9-17.6,17.6-17.6s17.6,7.9,17.6,17.6s-7.9,17.6-17.6,17.6S3.3,30.6,3.3,20.9"/>
	<path class="st1" d="M48.4,48.9L34.7,34.6c3.5-3.5,5.7-8.4,5.7-13.7c0-10.7-8.7-19.4-19.4-19.4S1.5,10.2,1.5,20.9
		c0,10.7,8.7,19.4,19.4,19.4c4.7,0,9-1.7,12.4-4.5l13.8,14.3c0.2,0.2,0.4,0.3,0.7,0.3c0.2,0,0.5-0.1,0.6-0.3
		C48.7,49.9,48.7,49.3,48.4,48.9z M3.3,20.9c0-9.7,7.9-17.6,17.6-17.6s17.6,7.9,17.6,17.6s-7.9,17.6-17.6,17.6S3.3,30.6,3.3,20.9z"
		/>
</g>
</svg>
